<svg width="48" height="48" viewBox="0 1 48 47" fill="none" xmlns="http://www.w3.org/2000/svg">
<path d="M0 8C0 3.58172 3.58172 0 8 0H40C44.4183 0 48 3.58172 48 8V40C48 44.4183 44.4183 48 40 48H8C3.58172 48 0 44.4183 0 40V8Z" fill="white"/>
<path d="M27.2933 15.9477C28.5417 16.74 29.4171 18.0808 29.5765 19.6371C30.0857 19.8779 30.6507 20.0164 31.2498 20.0164C33.437 20.0164 35.2097 18.222 35.2097 16.0084C35.2097 13.7944 33.437 12 31.2498 12C29.0836 12.0007 27.3264 13.763 27.2933 15.9477ZM24.6991 24.1547C26.8863 24.1547 28.659 22.3599 28.659 20.1463C28.659 17.9327 26.886 16.1383 24.6991 16.1383C22.5123 16.1383 20.7386 17.9331 20.7386 20.1467C20.7386 22.3603 22.5123 24.1547 24.6991 24.1547ZM26.3788 24.4279H23.0188C20.2231 24.4279 17.9486 26.7305 17.9486 29.5605V33.7199L17.9591 33.7851L18.2421 33.8748C20.9101 34.7186 23.228 35 25.1358 35C28.8622 35 31.0221 33.9246 31.1551 33.856L31.4197 33.7206H31.448V29.5605C31.449 26.7305 29.1745 24.4279 26.3788 24.4279ZM32.9302 20.2899H29.5961C29.56 21.6403 28.9906 22.8562 28.0899 23.7307C30.5749 24.4787 32.3931 26.8114 32.3931 29.5666V30.8484C35.6851 30.7263 37.5822 29.7818 37.7072 29.7184L37.9717 29.5826H38V25.4218C38 22.5922 35.7256 20.2899 32.9302 20.2899ZM17.7508 20.0171C18.5255 20.0171 19.2462 19.7882 19.8568 19.3984C20.0509 18.1169 20.7295 16.9972 21.6989 16.2345C21.703 16.1595 21.71 16.0851 21.71 16.0094C21.71 13.7954 19.937 12.001 17.7508 12.001C15.5633 12.001 13.791 13.7954 13.791 16.0094C13.791 18.2223 15.5633 20.0171 17.7508 20.0171ZM21.307 23.7307C20.4107 22.8606 19.8433 21.6512 19.8019 20.309C19.6782 20.2998 19.5559 20.2899 19.4299 20.2899H16.0701C13.2744 20.2899 11 22.5922 11 25.4218V29.582L11.0104 29.6461L11.2935 29.7365C13.4338 30.4128 15.344 30.7246 17.0031 30.8228V29.5666C17.0038 26.8114 18.8213 24.4794 21.307 23.7307Z" fill="#BDC8DA"/>
</svg>
