<svg width="48" height="48" viewBox="0 1 48 48" fill="none" xmlns="http://www.w3.org/2000/svg">
  <path d="M0 8.5C0 4.08172 3.58172 0.5 8 0.5H40C44.4183 0.5 48 4.08172 48 8.5V40.5C48 44.9183 44.4183 48.5 40 48.5H8C3.58172 48.5 0 44.9183 0 40.5V8.5Z" fill="#13449F"/>
  <path d="M23.9965 17.3447L13.2971 26.2116C13.2971 26.2241 13.294 26.2426 13.2877 26.2677C13.2816 26.2926 13.2783 26.3106 13.2783 26.3235V35.3022C13.2783 35.6263 13.3962 35.9073 13.632 36.1439C13.8676 36.3806 14.1467 36.4997 14.4693 36.4997H21.6144V29.3165H26.3785V36.5H33.5236C33.8461 36.5 34.1256 36.3811 34.3609 36.1439C34.5967 35.9075 34.715 35.6264 34.715 35.3022V26.3235C34.715 26.2737 34.7082 26.2361 34.6962 26.2116L23.9965 17.3447Z" fill="white"/>
  <path d="M38.7931 24.1913L34.7182 20.7869V13.1549C34.7182 12.9804 34.6624 12.8369 34.5504 12.7246C34.4394 12.6124 34.2966 12.5563 34.1227 12.5563H30.55C30.3763 12.5563 30.2336 12.6124 30.1218 12.7246C30.0103 12.8369 29.9546 12.9804 29.9546 13.1549V16.8025L25.4144 12.9863C25.0178 12.6621 24.5463 12.5 24.0004 12.5C23.4546 12.5 22.9832 12.6621 22.5863 12.9863L9.20677 24.1913C9.08274 24.2909 9.01477 24.425 9.00212 24.5934C8.98954 24.7616 9.03288 24.9086 9.13228 25.0332L10.2859 26.4174C10.3853 26.5296 10.5154 26.5982 10.6767 26.6233C10.8257 26.6359 10.9746 26.5921 11.1235 26.4924L24.0001 15.6988L36.8767 26.4923C36.9762 26.5793 37.1062 26.6228 37.2675 26.6228H37.3234C37.4845 26.5981 37.6143 26.5291 37.7142 26.4172L38.868 25.0331C38.9672 24.9082 39.0107 24.7615 38.9978 24.5931C38.9851 24.4252 38.9168 24.2911 38.7931 24.1913Z" fill="white"/>
</svg>
