<svg width="48" height="48" viewBox="0 1 48 48" fill="none" xmlns="http://www.w3.org/2000/svg">
  <path d="M0 8.5C0 4.08172 3.58172 0.5 8 0.5H40C44.4183 0.5 48 4.08172 48 8.5V40.5C48 44.9183 44.4183 48.5 40 48.5H8C3.58172 48.5 0 44.9183 0 40.5V8.5Z" fill="#13449F"/>
  <circle cx="24" cy="24" r="12" fill="#FFF"/>
  <path d="M29.4974 21.0002C29.8908 20.607 29.9974 19.5 29.4974 19C28.781 18.2836 27.8933 18.6069 27.5 19L22.2288 25.9537L19.725 23.4499C19.3318 23.0566 18.6432 22.8532 17.9969 23.5C17.3505 24.1468 17.604 25.107 17.9973 25.5002L21.5168 29.0897C21.9101 29.4828 22.5476 29.4828 22.9409 29.0897L29.4974 21.0002Z" fill="#13449F"/>
</svg>
