<svg width="24" height="24" viewBox="0 0 24 24" fill="none" xmlns="http://www.w3.org/2000/svg">
  <path fill-rule="evenodd" clip-rule="evenodd" d="M13.7778 1.77778C13.7778 0.795938 12.9818 0 12 0C11.0181 0 10.2222 0.795938 10.2222 1.77778V10.2222H1.77778C0.795938 10.2222 0 11.0182 0 12C0 12.9819 0.795938 13.7778 1.77778 13.7778H10.2222V22.2222C10.2222 23.2041 11.0181 24 12 24C12.9818 24 13.7778 23.2041 13.7778 22.2222V13.7778H22.2222C23.2041 13.7778 24 12.9819 24 12C24 11.0182 23.2041 10.2222 22.2222 10.2222H13.7778V1.77778Z" fill="#FFF"/>
</svg>
