<svg width="48" height="48" viewBox="0 1 48 48" fill="none" xmlns="http://www.w3.org/2000/svg">
  <path d="M0 8.5C0 4.08172 3.58172 0.5 8 0.5H40C44.4183 0.5 48 4.08172 48 8.5V40.5C48 44.9183 44.4183 48.5 40 48.5H8C3.58172 48.5 0 44.9183 0 40.5V8.5Z" fill="#13449F"/>
  <path d="M34.7715 21.4806L33.087 21.1948C32.9115 20.6283 32.6859 20.0818 32.4102 19.5604L33.4028 18.1717C33.824 17.5801 33.7588 16.7729 33.2424 16.2615L31.7484 14.7675C31.4676 14.4867 31.0966 14.3313 30.7005 14.3313C30.3897 14.3313 30.0939 14.4266 29.8432 14.607L28.4495 15.5997C27.908 15.314 27.3415 15.0783 26.7549 14.9028L26.4741 13.2383C26.3538 12.5214 25.7371 12 25.0102 12H22.8995C22.1725 12 21.5558 12.5214 21.4355 13.2383L21.1447 14.943C20.5832 15.1184 20.0367 15.349 19.5153 15.6298L18.1366 14.6371C17.8859 14.4566 17.5851 14.3614 17.2743 14.3614C16.8782 14.3614 16.5022 14.5168 16.2264 14.7976L14.7274 16.2916C14.216 16.803 14.1458 17.6102 14.5669 18.2018L15.5696 19.6106C15.2939 20.137 15.0733 20.6835 14.9028 21.25L13.2383 21.5308C12.5214 21.6511 12 22.2677 12 22.9947V25.1054C12 25.8324 12.5214 26.449 13.2383 26.5694L14.943 26.8602C15.1184 27.4217 15.3491 27.9681 15.6298 28.4896L14.6421 29.8633C14.221 30.4549 14.2862 31.262 14.8026 31.7734L16.2966 33.2675C16.5774 33.5482 16.9484 33.7036 17.3444 33.7036C17.6553 33.7036 17.9511 33.6084 18.2018 33.4279L19.6106 32.4252C20.1169 32.6909 20.6484 32.9065 21.1948 33.077L21.4756 34.7615C21.5959 35.4784 22.2126 35.9998 22.9396 35.9998H25.0553C25.7822 35.9998 26.3989 35.4784 26.5192 34.7615L26.805 33.077C27.3715 32.9015 27.918 32.6759 28.4394 32.4001L29.8282 33.3928C30.0789 33.5733 30.3797 33.6686 30.6905 33.6686C31.0866 33.6686 31.4576 33.5131 31.7383 33.2324L33.2324 31.7383C33.7438 31.227 33.814 30.4198 33.3928 29.8282L32.4001 28.4344C32.6759 27.908 32.9065 27.3615 33.077 26.8L34.7615 26.5192C35.4784 26.3989 35.9999 25.7822 35.9999 25.0553V22.9446C36.0099 22.2176 35.4885 21.6009 34.7715 21.4806Z" fill="#FFF"/>
  <path d="M24.0528 18.9049C21.1951 18.9049 18.8738 21.2262 18.8738 24.0839C18.8738 26.9416 21.1951 29.2629 24.0528 29.2629C26.9105 29.2629 29.2318 26.9416 29.2318 24.0839C29.2318 21.2262 26.9105 18.9049 24.0528 18.9049Z" fill="#13449F"/>
</svg>
