<svg width="48" height="48" viewBox="0 0 48 49" fill="none" xmlns="http://www.w3.org/2000/svg">
  <path d="M24.5005 11.5C17.599 11.5 12 17.0917 12 23.9934C12 30.9018 17.599 36.5 24.5005 36.5C31.4058 36.5 37 30.9017 37 23.9934C37.0001 17.0917 31.4058 11.5 24.5005 11.5ZM25.3913 30.9488C25.101 31.2071 24.7645 31.337 24.3833 31.337C23.989 31.337 23.645 31.2094 23.3514 30.9539C23.0573 30.6989 22.9099 30.3417 22.9099 29.8829C22.9099 29.4759 23.0525 29.1333 23.3368 28.8557C23.621 28.578 23.9697 28.4392 24.3833 28.4392C24.7904 28.4392 25.133 28.578 25.4111 28.8557C25.6888 29.1333 25.828 29.4758 25.828 29.8829C25.8275 30.3351 25.6821 30.6905 25.3913 30.9488ZM29.0115 21.9742C28.7884 22.3879 28.5235 22.7445 28.2162 23.0453C27.9098 23.3459 27.3588 23.8513 26.5635 24.5618C26.3442 24.7623 26.1678 24.9383 26.0355 25.0898C25.9033 25.2418 25.8045 25.3806 25.74 25.5067C25.675 25.6328 25.6252 25.759 25.5899 25.885C25.5546 26.0107 25.5014 26.2323 25.4294 26.549C25.3071 27.221 24.9226 27.5569 24.2765 27.5569C23.9405 27.5569 23.6581 27.4473 23.428 27.2275C23.1988 27.0078 23.0845 26.6817 23.0845 26.2488C23.0845 25.7062 23.1687 25.2361 23.3367 24.8385C23.5038 24.4409 23.7273 24.0922 24.005 23.7915C24.2831 23.4908 24.6576 23.1341 25.1296 22.7205C25.5433 22.3586 25.8421 22.0857 26.0261 21.9017C26.2105 21.7173 26.3654 21.5121 26.491 21.2862C26.6176 21.0599 26.6798 20.8147 26.6798 20.5498C26.6798 20.0327 26.4882 19.5969 26.1033 19.2417C25.7189 18.8864 25.2228 18.7085 24.6153 18.7085C23.9043 18.7085 23.381 18.8878 23.045 19.2463C22.709 19.6049 22.4253 20.1329 22.1923 20.8307C21.9721 21.5611 21.5551 21.9262 20.942 21.9262C20.5801 21.9262 20.2747 21.7987 20.0258 21.5436C19.7773 21.2885 19.653 21.0123 19.653 20.715C19.653 20.1013 19.8502 19.4792 20.2441 18.8492C20.6385 18.2191 21.2135 17.6972 21.9697 17.2841C22.7254 16.8704 23.6078 16.6634 24.6153 16.6634C25.5522 16.6634 26.3791 16.8365 27.0962 17.1824C27.8134 17.5278 28.3677 17.9979 28.7588 18.5927C29.1494 19.187 29.3451 19.8331 29.3451 20.5309C29.346 21.0792 29.2345 21.5606 29.0115 21.9742Z" fill="#BDC8DA"/>
</svg>
