<svg width="152" height="40" viewBox="0 0 152 40" fill="none" xmlns="http://www.w3.org/2000/svg">
  <path d="M60.9414 13.2498C60.0186 11.7478 57.4816 10.3203 54.5601 10.3203C50.7928 10.3203 48.9856 11.8597 48.9856 13.813C48.9856 16.1049 51.754 16.7435 54.9827 17.1187C60.5958 17.795 65.8231 19.2233 65.8231 25.4968C65.8231 31.3567 60.5187 33.8741 54.5216 33.8741C49.025 33.8741 44.7964 32.2209 42.7969 27.4125L47.0252 25.2712C48.2174 28.1639 51.3306 29.4409 54.5978 29.4409C57.7888 29.4409 60.7874 28.3512 60.7874 25.4961C60.7874 23.0171 58.1353 22.0024 54.5601 21.627C49.0624 20.9885 43.9881 19.561 43.9881 13.6626C43.9881 8.25322 49.4473 6.03685 54.4061 6C58.5961 6 62.9402 7.16416 64.9774 11.2212L60.9414 13.2498Z" fill="#00376E"/>
  <path d="M76.9994 9.5275V14.7872H82.2285V18.7313H76.9617V26.7326C76.9617 28.4986 77.9608 29.3619 79.4215 29.3619C80.1527 29.3619 80.9977 29.1371 81.6888 28.7987L82.9965 32.7061C81.6513 33.2317 80.5369 33.4574 79.1137 33.4943C75.0006 33.6454 72.3107 31.3528 72.3107 26.7326V18.7313H68.7734V14.7872H72.3107V10.0156L76.9994 9.5275Z" fill="#00376E"/>
  <path d="M85.957 12.533V33.5881H90.987V16.2899L85.957 12.533Z" fill="#00376E"/>
  <path d="M118.928 7.19412V22.3705L125.309 14.9327H130.863L121.918 25.0449L131.999 33.1149V33.4533H126.347L118.928 27.986V33.4526H114.238V7.19412H118.928Z" fill="#37DCD2"/>
  <path d="M34.8594 6.79974V16.0536L40.0048 11.6295V6.79974H34.8594Z" fill="#37DCD2"/>
  <path d="M34.8581 19.2909V22.0749C34.8581 26.1106 32.677 29.2733 28.0002 29.2733C26.2558 29.2733 24.8419 28.9437 23.7659 28.2913L20 31.5233C22.065 33.1577 24.826 33.9999 28.0002 33.9999C35.5208 33.9999 40.0036 28.9708 40.0036 22.0749V14.8661L34.8581 19.2909Z" fill="#00376E"/>
  <path d="M85.957 9.30943V8.79515V6.81332H90.987V13.0935L85.957 9.30943Z" fill="#37DCD2"/>
  <path d="M96.1836 17.1669C98.1387 14.7795 101.378 13.9906 104.004 14.0003C106.695 14.0101 108.62 14.6291 110.847 16.7426L107.883 19.7947C106.769 18.8185 105.385 18.3508 104.078 18.3304C102.277 18.3026 100.953 19.041 100.025 20.0023L96.1836 17.1669Z" fill="#37DCD2"/>
  <path d="M107.152 28.4235C106.194 28.9779 105.103 29.1972 104.012 29.1972C101.089 29.1972 98.6294 27.319 98.6294 23.7878C98.6294 23.2211 98.7005 22.6839 98.8352 22.1844L94.8585 19.2009C94.2614 20.4928 93.9258 22.0266 93.9258 23.8056C93.9258 30.3801 98.4997 33.6107 103.997 33.6107C106.584 33.6107 108.746 32.9082 110.785 31.1496L107.152 28.4235Z" fill="#00376E"/>
</svg>
